<svg width="80" height="80" viewBox="0 0 80 80" fill="none" xmlns="http://www.w3.org/2000/svg">
<path fill-rule="evenodd" clip-rule="evenodd" d="M0.614871 25.7571C0 28.8483 0 32.5655 0 40C0 47.4345 0 51.1517 0.614871 54.2429C3.13988 66.937 13.063 76.8601 25.7571 79.3851C28.8483 80 32.5655 80 40 80C47.4345 80 51.1517 80 54.2429 79.3851C66.937 76.8601 76.8601 66.937 79.3851 54.2429C80 51.1517 80 47.4345 80 40C80 32.5655 80 28.8483 79.3851 25.7571C76.8601 13.063 66.937 3.13988 54.2429 0.614871C51.1517 0 47.4345 0 40 0C32.5655 0 28.8483 0 25.7571 0.614871C13.063 3.13988 3.13988 13.063 0.614871 25.7571ZM58.4579 36.7348C57.4239 34.0165 53.8424 32.0133 46.6794 28.007C39.8051 24.1622 36.368 22.2398 33.5634 22.7326C31.6709 23.0652 29.9613 24.0678 28.7473 25.5572C26.9481 27.7643 26.9481 31.7025 26.9481 39.579C26.9481 47.4553 26.9481 51.3935 28.7473 53.6007C29.9613 55.0901 31.6709 56.0927 33.5635 56.4253C36.368 56.9181 39.8051 54.9957 46.6794 51.1509C53.8424 47.1446 57.4239 45.1414 58.4579 42.4231C59.1547 40.591 59.1547 38.5669 58.4579 36.7348Z" fill="white"/>
</svg>
