<svg width="20" height="20" viewBox="0 0 20 20" fill="none" xmlns="http://www.w3.org/2000/svg">
<g clip-path="url(#clip0_61_32)">
<path d="M-0.000351562 6.48453C-0.000351562 7.07078 0.214648 7.71516 0.487773 8.39891C0.760898 9.08266 1.11277 9.72703 1.38652 10.2152C2.12902 11.5045 3.0859 12.7739 4.17965 13.8283C5.2734 14.8827 6.56277 15.762 8.00777 16.2895C8.84777 16.6214 9.68777 16.9927 10.6253 16.9927C11.094 16.9927 11.7584 16.817 12.3634 16.5627C12.9496 16.3089 13.4765 15.9183 13.6721 15.4495C13.7503 15.2739 13.8478 15.0395 13.9065 14.7658C13.9653 14.512 14.004 14.2577 14.004 14.082C14.004 13.9845 14.004 13.8864 13.9846 13.867C13.9259 13.7495 13.789 13.652 13.6328 13.5545C13.2809 13.3789 13.2228 13.3202 12.6953 13.0077C12.1484 12.6952 11.5821 12.3433 11.0934 12.0895C10.859 11.9527 10.7028 11.8939 10.644 11.8939C10.3315 11.8939 9.9409 12.3239 9.60902 12.7927C9.25715 13.2614 8.86652 13.6914 8.5934 13.6914C8.45652 13.6914 8.31965 13.6327 8.1634 13.5352C8.00715 13.4377 7.8509 13.3595 7.7534 13.3008C6.03465 12.3239 4.88215 11.172 3.9059 9.47266C3.7884 9.27703 3.51527 8.86703 3.51527 8.65203C3.51527 8.39828 3.86715 8.10516 4.2184 7.79266C4.55027 7.49953 4.90215 7.14828 4.90215 6.71828C4.90215 6.65953 4.86277 6.48391 4.78465 6.23016C4.60902 5.72203 4.37465 5.13641 4.17902 4.57016C4.08152 4.29641 4.0034 4.10141 3.9834 4.00391C3.94402 3.94516 3.92465 3.86703 3.90527 3.76953C3.8859 3.67203 3.84652 3.59391 3.82715 3.51578C3.7684 3.34016 3.6709 3.20328 3.5734 3.12516C3.4759 3.08578 3.24152 3.02766 3.00715 3.00766C2.77277 3.00766 2.49902 2.98828 2.38215 2.98828C2.3234 2.98828 2.24527 2.98828 2.16715 3.00766H1.9134C1.2884 3.28141 0.839023 3.82828 0.507148 4.47266C0.194648 5.11703 -0.000976562 5.84016 -0.000976562 6.48453H-0.000351562Z" fill="#04151F"/>
</g>
<defs>
<clipPath id="clip0_61_32">
<rect width="20" height="20" fill="white"/>
</clipPath>
</defs>
</svg>
