<svg width="22" height="36" viewBox="0 0 22 36" fill="none" xmlns="http://www.w3.org/2000/svg">
<path d="M11.376 14.8875C11.3568 14.1609 11.376 13.4534 11.4525 12.7268C11.9688 12.7651 12.5042 12.7077 13.0395 12.5739C13.1734 12.7268 13.4028 12.8033 13.5749 12.6121C13.6323 12.5548 13.7279 12.4591 13.8235 12.3444C13.9191 12.4018 14.053 12.4209 14.1868 12.3253C18.9288 8.95999 16.1371 4.10322 13.6514 0.183398C13.4411 -0.141661 12.963 -0.00781292 12.9248 0.374609C12.6762 3.9885 8.18274 5.40346 8.08713 9.11295C8.06801 9.93516 8.27834 10.6044 8.62252 11.1398C8.67989 11.7325 9.2344 12.0576 9.82715 12.2297C10.0948 12.3635 10.3625 12.4974 10.6494 12.5739C10.5729 13.3005 10.592 14.0462 10.6494 14.7919C7.80032 14.5242 5.10424 14.6007 3.57455 14.9831C3.51719 14.8875 3.38334 14.8493 3.26861 14.9449C0.0945745 17.6027 -1.64551 24.907 2.1979 27.6987C2.35086 27.8135 2.59944 27.7369 2.67592 27.5648C2.84801 27.278 3.00098 26.9721 3.13483 26.6852C3.03922 28.5591 3.15395 30.4139 3.97616 32.0583C5.42936 35.022 9.84634 35.1941 12.638 35.1177C19.6363 34.9264 19.273 28.4061 18.6229 23.1287C18.9862 23.4155 19.3686 23.9701 19.579 24.1996C19.6937 24.3143 19.904 24.3143 20.0188 24.1996C25.6212 18.5205 18.2596 15.6715 11.376 14.8875ZM10.7258 11.9046C10.1522 11.6561 9.67418 11.2545 9.34913 10.7191C9.36825 10.6809 9.40649 10.6426 9.42561 10.6044C9.63594 10.3558 9.88452 10.1455 10.1522 9.9734C10.6494 9.64834 11.2039 9.38065 11.7775 9.17032C11.223 10.0308 10.8789 10.9486 10.7258 11.9046ZM11.5289 12.1532C11.701 11.1398 12.007 10.1455 12.5232 9.09383C12.5615 9.03647 12.5615 8.97911 12.5615 8.92174C13.1925 8.74965 13.9381 8.59668 14.5118 8.69229C14.7795 8.73053 14.8942 8.78789 15.009 8.90262C15.009 8.90262 15.0281 8.94086 15.0472 8.97911C15.0472 8.97911 15.0854 9.07471 15.0854 9.09383C15.0663 8.99823 15.0854 9.17032 15.0854 9.20856C15.0854 9.22768 15.0854 9.28504 15.0663 9.36153C14.8176 10.4132 13.7852 11.3692 13.0394 12.0958C13.0394 12.0958 13.0394 12.115 13.0203 12.115C12.5232 12.2297 12.007 12.2297 11.5289 12.1532ZM8.92852 8.29075C9.15798 6.95227 10.4008 5.84325 11.2804 4.90631C12.2747 3.85465 13.1352 2.76475 13.4985 1.42627C14.9899 3.79729 16.5387 6.56985 15.8312 8.99823C15.793 8.63493 15.6017 8.32899 15.1428 8.11866C14.4927 7.83184 13.7087 7.92745 13.0204 8.06129C12.1982 8.23338 11.3568 8.53932 10.592 8.92181C10.0948 9.1895 9.44473 9.5528 9.02407 10.05C8.85204 9.55274 8.81373 8.95999 8.92852 8.29075ZM12.638 34.2763C9.42561 34.5058 5.23809 33.9321 4.22467 30.3756C3.51719 27.8708 4.0717 24.8687 3.93785 22.2874C3.93785 22.1344 3.80401 22.0771 3.68928 22.0962C3.76576 21.8667 3.86137 21.6564 3.9761 21.4269C4.22467 20.968 4.47324 20.5664 4.83654 21.1401C5.21897 21.7328 5.37194 22.5168 5.5249 23.2052C5.83084 24.4671 6.07942 25.8057 6.11766 27.0868C6.11766 27.278 6.32799 27.4883 6.53832 27.4118C9.15791 26.341 8.43131 23.3773 10.2669 21.8284C10.3052 22.8801 10.4964 24.3333 11.6627 24.3715C12.8483 24.4097 13.3454 22.3065 13.4792 21.3886C14.3206 22.6124 15.181 23.7023 15.7164 25.1173C15.812 25.385 16.118 25.4041 16.2709 25.1938C16.4812 24.9069 17.3799 23.9701 17.7815 23.4347C18.3935 28.2149 18.9097 33.7983 12.638 34.2763ZM18.489 22.23C18.3743 21.7521 17.6094 21.7521 17.6669 22.2683C17.6669 22.3065 17.6669 22.3256 17.686 22.3639C17.3418 23.0139 16.3857 24.6775 15.9842 24.0274C15.3342 22.9758 14.531 22.077 13.7662 21.1019C13.6897 21.0063 13.5559 21.0445 13.4985 21.121C13.422 20.968 13.1543 20.9872 13.0969 21.1784C12.8293 21.9815 12.619 22.7845 12.0835 23.473C11.0892 24.7541 10.8598 21.427 10.8598 21.2357C10.8598 21.0063 10.6112 20.8725 10.42 20.9872C8.22104 22.2683 8.8138 25.3468 6.76784 26.5323C6.67223 24.5819 6.30893 22.1918 5.29551 20.6047C4.95133 20.0502 4.41594 19.9929 3.91879 20.3753C2.84801 21.2357 2.94362 22.4595 3.40253 23.492C3.32604 24.3716 3.23043 25.2703 3.15395 26.169C3.07747 26.1116 2.96274 26.0925 2.88625 26.1881C1.28008 28.062 0.821176 22.8611 0.878539 21.7902C1.01239 19.6869 1.81547 17.3733 3.13483 15.6715C3.21131 15.7671 3.32604 15.8053 3.47901 15.7671C5.67794 15.117 8.22104 15.1361 10.6877 15.4038C10.8406 16.5893 11.0892 17.7557 11.3569 18.8838C11.4334 19.1898 11.8541 19.0559 11.7967 18.7691C11.6054 17.6218 11.4525 16.5511 11.376 15.4994C12.6763 15.6715 13.9574 15.9009 15.1238 16.1495C17.0933 16.5511 19.2157 17.2012 20.7263 18.6161C21.7588 19.5913 21.6058 20.8724 20.9939 22.0197C20.0188 23.8936 19.5407 23.3008 18.489 22.23Z" fill="#EFD6AC"/>
</svg>
