<svg width="24" height="24" viewBox="0 0 24 24" fill="none" xmlns="http://www.w3.org/2000/svg">
<path fill-rule="evenodd" clip-rule="evenodd" d="M23 12C23 18.0751 18.0751 23 12 23C5.92487 23 1 18.0751 1 12C1 5.92486 5.92487 1 12 1C18.0751 1 23 5.92486 23 12ZM12.3941 9.12068C11.3243 9.5657 9.18594 10.4867 5.97922 11.8838C5.45851 12.091 5.18573 12.2936 5.16089 12.4916C5.11893 12.8264 5.53815 12.9582 6.10901 13.1377C6.18666 13.1621 6.26712 13.1874 6.34959 13.2142C6.91124 13.3968 7.66674 13.6104 8.0595 13.6189C8.41577 13.6266 8.81341 13.4797 9.2524 13.1782C12.2485 11.1557 13.7952 10.1335 13.8922 10.1114C13.9608 10.0959 14.0557 10.0763 14.12 10.1335C14.1844 10.1907 14.178 10.299 14.1712 10.328C14.1297 10.5051 12.4841 12.035 11.6325 12.8266C11.3671 13.0735 11.1787 13.2485 11.1402 13.2885C11.054 13.3781 10.9661 13.4628 10.8816 13.5442C10.3599 14.0472 9.96853 14.4244 10.9033 15.0404C11.3524 15.3364 11.7119 15.5812 12.0705 15.8254C12.4621 16.0921 12.8527 16.3581 13.3582 16.6894C13.4869 16.7738 13.6099 16.8614 13.7296 16.9468C14.1854 17.2717 14.5948 17.5637 15.1007 17.517C15.3946 17.4901 15.6982 17.2137 15.8524 16.3893C16.2169 14.4412 16.9332 10.2202 17.0987 8.48089C17.1132 8.3285 17.095 8.13348 17.0802 8.04786C17.0656 7.96225 17.035 7.84026 16.9237 7.74996C16.7919 7.64302 16.5884 7.62047 16.4975 7.622C16.0838 7.62937 15.4489 7.85008 12.3941 9.12068Z" stroke="black" stroke-width="1.3" stroke-linejoin="round"/>
</svg>
