<svg width="22" height="22" viewBox="0 0 22 22" fill="none" xmlns="http://www.w3.org/2000/svg">
<path d="M3.11667 3.11667L2.79102 2.79409L2.79488 2.79029L3.11667 3.11667ZM3.11667 18.8833L2.79409 19.2089L2.79029 19.2051L3.11667 18.8833ZM18.8833 18.8833L19.209 19.2059L19.2051 19.2098L18.8833 18.8833ZM18.8833 3.11667L19.2059 2.79102L19.2097 2.79488L18.8833 3.11667ZM4.92555 7.41278L4.46731 7.42218C4.46479 7.29901 4.51194 7.18002 4.59816 7.09203C4.68437 7.00403 4.80236 6.95445 4.92555 6.95445V7.41278ZM11.8311 15.0395H12.2894C12.2894 15.2926 12.0842 15.4978 11.8311 15.4978V15.0395ZM11.8311 12.3139H11.3728C11.3728 12.1844 11.4275 12.061 11.5235 11.9741C11.6194 11.8872 11.7477 11.845 11.8766 11.8578L11.8311 12.3139ZM14.9906 15.0395V15.4978C14.7913 15.4978 14.6149 15.3691 14.5542 15.1794L14.9906 15.0395ZM17.16 15.0395L17.6024 14.9198C17.6397 15.0575 17.6107 15.2048 17.524 15.3181C17.4372 15.4314 17.3027 15.4978 17.16 15.4978V15.0395ZM14.025 11.2139L13.8207 11.6242C13.6714 11.5498 13.5741 11.4001 13.5671 11.2334C13.5599 11.0666 13.6441 10.9093 13.7866 10.8224L14.025 11.2139ZM16.7016 7.40667V6.94833C16.8393 6.94833 16.9697 7.01021 17.0567 7.11686C17.1438 7.22351 17.1783 7.36364 17.1507 7.49851L16.7016 7.40667ZM14.7339 7.40667L14.2928 7.28217C14.3485 7.0847 14.5287 6.94833 14.7339 6.94833V7.40667ZM11.8311 10.4255L11.8797 10.8813C11.7504 10.8951 11.6214 10.8533 11.5247 10.7664C11.428 10.6794 11.3728 10.5556 11.3728 10.4255H11.8311ZM11.8311 7.41278V6.95445C12.0842 6.95445 12.2894 7.15965 12.2894 7.41278H11.8311ZM9.85725 7.41278H9.39891C9.39891 7.15965 9.60406 6.95445 9.85725 6.95445V7.41278ZM9.85725 12.6928H10.3156C10.3156 12.8339 10.2505 12.9672 10.1393 13.0541C10.028 13.1409 9.88301 13.1717 9.74606 13.1374L9.85725 12.6928ZM7.02777 7.41278V6.95445C7.27747 6.95445 7.48122 7.15432 7.48602 7.40396L7.02777 7.41278ZM1.375 10.6333C1.375 8.5715 1.37404 6.98 1.53947 5.74399C1.70666 4.4948 2.0512 3.54096 2.79102 2.79409L3.44229 3.43921C2.89878 3.98789 2.60167 4.7177 2.44803 5.86559C2.29263 7.02666 2.29167 8.54572 2.29167 10.6333H1.375ZM1.375 11.3667V10.6333H2.29167V11.3667H1.375ZM2.79029 19.2051C2.05118 18.4554 1.70667 17.5007 1.53947 16.2514C1.37404 15.0155 1.375 13.4255 1.375 11.3667H2.29167C2.29167 13.4512 2.29263 14.9687 2.44803 16.1299C2.60166 17.2776 2.89882 18.0096 3.44305 18.5616L2.79029 19.2051ZM10.6333 20.625C8.5715 20.625 6.98 20.626 5.74399 20.4606C4.49479 20.2934 3.54096 19.9488 2.79409 19.2089L3.43921 18.5577C3.98789 19.1012 4.7177 19.3983 5.86559 19.5519C7.02666 19.7073 8.54572 19.7083 10.6333 19.7083V20.625ZM11.3666 20.625H10.6333V19.7083H11.3666V20.625ZM19.2051 19.2098C18.4555 19.9489 17.5007 20.2934 16.2515 20.4606C15.0154 20.626 13.4255 20.625 11.3666 20.625V19.7083C13.4512 19.7083 14.9688 19.7073 16.1298 19.5519C17.2777 19.3983 18.0095 19.1011 18.5615 18.5569L19.2051 19.2098ZM20.625 11.3667C20.625 13.4285 20.626 15.02 20.4605 16.256C20.2933 17.5052 19.9488 18.459 19.209 19.2059L18.5577 18.5608C19.1012 18.0121 19.3984 17.2823 19.552 16.1344C19.7074 14.9733 19.7083 13.4543 19.7083 11.3667H20.625ZM20.625 10.6333V11.3667H19.7083V10.6333H20.625ZM19.2097 2.79488C19.9488 3.54455 20.2933 4.49931 20.4605 5.74857C20.626 6.98458 20.625 8.57454 20.625 10.6333H19.7083C19.7083 8.5488 19.7074 7.03126 19.552 5.87018C19.3984 4.72236 19.1012 3.99045 18.557 3.43845L19.2097 2.79488ZM11.3666 1.375C13.4285 1.375 15.02 1.37404 16.256 1.53947C17.5052 1.70666 18.459 2.05119 19.2059 2.79102L18.5608 3.44229C18.0121 2.89878 17.2823 2.60167 16.1344 2.44803C14.9733 2.29263 13.4542 2.29167 11.3666 2.29167V1.375ZM10.6333 1.375H11.3666V2.29167H10.6333V1.375ZM2.79488 2.79029C3.54455 2.05118 4.49931 1.70668 5.74857 1.53947C6.98458 1.37404 8.57454 1.375 10.6333 1.375V2.29167C8.5488 2.29167 7.03125 2.29263 5.87018 2.44803C4.72236 2.60166 3.99045 2.89882 3.43845 3.44305L2.79488 2.79029ZM11.5866 15.4978C9.38461 15.4978 7.60881 14.7398 6.37819 13.3129C5.1567 11.8967 4.51762 9.87424 4.46731 7.42218L5.38379 7.40338C5.43127 9.71795 6.03273 11.5088 7.07235 12.7143C8.10285 13.909 9.60874 14.5811 11.5866 14.5811V15.4978ZM11.5928 15.4978H11.5866V14.5811H11.5928V15.4978ZM11.8311 15.4978H11.5928V14.5811H11.8311V15.4978ZM12.2894 12.3139V15.0395H11.3728V12.3139H12.2894ZM14.5542 15.1794C14.1343 13.8703 13.1043 12.9013 11.7856 12.77L11.8766 11.8578C13.6257 12.0321 14.9179 13.3119 15.427 14.8995L14.5542 15.1794ZM17.16 15.4978H14.9906V14.5811H17.16V15.4978ZM16.3571 12.5C16.9386 13.2095 17.363 14.0343 17.6024 14.9198L16.7176 15.1591C16.512 14.3986 16.1475 13.6903 15.6481 13.0811L16.3571 12.5ZM14.2292 10.8036C15.0504 11.2123 15.7757 11.7905 16.3571 12.5L15.6481 13.0811C15.1488 12.4718 14.526 11.9752 13.8207 11.6242L14.2292 10.8036ZM16.1351 9.85288C15.6383 10.5595 15.0011 11.1561 14.2634 11.6054L13.7866 10.8224C14.4167 10.4387 14.9609 9.92915 15.3852 9.32571L16.1351 9.85288ZM17.1507 7.49851C16.9776 8.34477 16.6319 9.14625 16.1351 9.85288L15.3852 9.32571C15.8095 8.72215 16.1048 8.03762 16.2526 7.31483L17.1507 7.49851ZM14.7339 6.94833H16.7016V7.865H14.7339V6.94833ZM11.7825 9.96985C12.2376 9.92127 12.7624 9.62463 13.2412 9.12066C13.7139 8.62301 14.0999 7.96527 14.2928 7.28217L15.175 7.53117C14.94 8.36361 14.4766 9.15116 13.9059 9.75196C13.3411 10.3464 12.6285 10.8014 11.8797 10.8813L11.7825 9.96985ZM12.2894 7.41278V10.4255H11.3728V7.41278H12.2894ZM9.85725 6.95445H11.8311V7.87111H9.85725V6.95445ZM9.39891 12.6928V7.41278H10.3156V12.6928H9.39891ZM7.48602 7.40396C7.55081 10.7732 9.01579 12.01 9.96835 12.2481L9.74606 13.1374C8.25421 12.7645 6.63918 11.0435 6.56953 7.42159L7.48602 7.40396ZM4.92555 6.95445H7.02777V7.87111H4.92555V6.95445Z" fill="black"/>
</svg>
