<svg width="22" height="22" viewBox="0 0 22 22" fill="none" xmlns="http://www.w3.org/2000/svg">
<g clip-path="url(#clip0_57_4)">
<path d="M5.51284 7.33895C5.61758 6.51053 6.69421 5.38463 7.54864 5.50956L7.54728 5.5082C8.3788 5.66621 9.03704 7.09739 9.40821 7.74093C9.6712 8.20785 9.50043 8.68092 9.25513 8.88055C8.92421 9.14726 8.40674 9.51527 8.51531 9.88478C8.70833 10.5417 11 12.8333 12.1271 13.4848C12.5538 13.7314 12.8631 13.081 13.1273 12.7478C13.3193 12.4915 13.7927 12.3383 14.2586 12.5913C14.9543 12.9965 15.6097 13.4674 16.2158 13.9975C16.5185 14.2505 16.5896 14.6244 16.3798 15.0196C16.0104 15.7156 14.9419 16.6335 14.1664 16.4469C12.8117 16.1212 7.33333 13.9975 5.57364 7.84484C5.47467 7.55377 5.49959 7.44374 5.51284 7.33895Z" fill="black"/>
<path fill-rule="evenodd" clip-rule="evenodd" d="M11.0003 21.0827C9.87869 21.0827 9.25811 20.9623 8.25033 20.6243L6.32022 21.5894C5.10123 22.1989 3.66699 21.3125 3.66699 19.9496V17.8743C1.693 16.0337 0.916992 13.9113 0.916992 10.9993C0.916992 5.43048 5.43146 0.916016 11.0003 0.916016C16.5692 0.916016 21.0837 5.43048 21.0837 10.9993C21.0837 16.5682 16.5692 21.0827 11.0003 21.0827ZM5.50033 17.0771L4.91728 16.5334C3.38362 15.1034 2.75033 13.5047 2.75033 10.9993C2.75033 6.443 6.44398 2.74935 11.0003 2.74935C15.5567 2.74935 19.2503 6.443 19.2503 10.9993C19.2503 15.5557 15.5567 19.2493 11.0003 19.2493C10.0968 19.2493 9.67299 19.1678 8.83328 18.8862L8.11142 18.6441L5.50033 19.9496V17.0771Z" fill="black"/>
</g>
<defs>
<clipPath id="clip0_57_4">
<rect width="22" height="22" fill="white"/>
</clipPath>
</defs>
</svg>
